/* XPM */
static char *_526157898333[] = {
/* columns rows colors chars-per-pixel */
"64 64 255 2 ",
"   c black",
".  c #0A0905",
"X  c #14120C",
"o  c #1A180E",
"O  c #1D1A10",
"+  c #201D13",
"@  c #2B2717",
"#  c #2E2913",
"$  c #2E2A1B",
"%  c gray15",
"&  c #2A2A25",
"*  c #2C2C2B",
"=  c #3B3622",
"-  c #3B3727",
";  c #32322E",
":  c #343433",
">  c #3A3A35",
",  c #3D3D3C",
"<  c #433C20",
"1  c #7C691D",
"2  c #474228",
"3  c #544A25",
"4  c #544C2B",
"5  c #5E522F",
"6  c #42413E",
"7  c #544D34",
"8  c #524C3A",
"9  c #595238",
"0  c #66562A",
"q  c #605633",
"w  c #625933",
"e  c #6A5E38",
"r  c #7B6929",
"t  c #6E6339",
"y  c #766E35",
"u  c #786B37",
"i  c #454543",
"p  c #4A4A44",
"a  c #4D4D4B",
"s  c #4F5045",
"d  c #51514D",
"f  c #585749",
"g  c #545453",
"h  c #5B5B54",
"j  c #5C5C59",
"k  c #605F55",
"l  c #5F6053",
"z  c #6D6545",
"x  c #756D45",
"c  c #7A7347",
"v  c #666557",
"b  c #6C6A53",
"n  c #726E57",
"m  c #797457",
"M  c #656563",
"N  c #6B6B64",
"B  c #757568",
"V  c #7C7C6D",
"C  c #767672",
"Z  c #7C7C74",
"A  c #7D7D7B",
"S  c #8B6F1A",
"D  c #8D721D",
"F  c #93741C",
"G  c #987819",
"H  c #9B7A1C",
"J  c #A57E18",
"K  c #866E26",
"L  c #8D7123",
"P  c #89712B",
"I  c #967826",
"U  c #806B36",
"Y  c #897639",
"T  c #947C38",
"R  c #847846",
"E  c #937E44",
"W  c #827C57",
"Q  c #817F77",
"!  c #7F8078",
"~  c #9D801D",
"^  c #AB851C",
"/  c #AC851C",
"(  c #B38D1E",
")  c #B88F1E",
"_  c #BC921C",
"`  c #9F8322",
"'  c #9C822C",
"]  c #9C8234",
"[  c #9C833C",
"{  c #A38224",
"}  c #AB8623",
"|  c #A2822B",
" . c #AE8A29",
".. c #B48D24",
"X. c #B38D2C",
"o. c #B59027",
"O. c #BC9223",
"+. c #BB952A",
"@. c #A98B37",
"#. c #AC923B",
"$. c #B69434",
"%. c #BB9532",
"&. c #B4933B",
"*. c #BA983A",
"=. c #C5981A",
"-. c #D09F1A",
";. c #DAA91E",
":. c #C49A24",
">. c #C69B26",
",. c #C39B2D",
"<. c #C39D35",
"1. c #CCA42A",
"2. c #D4A928",
"3. c #CCA433",
"4. c #C9A439",
"5. c #CBA43B",
"6. c #D4AC36",
"7. c #DBB33B",
"8. c #E5B82B",
"9. c #E3BA38",
"0. c #EAC13B",
"q. c #F3C83A",
"w. c #9A8847",
"e. c #87815D",
"r. c #908B5B",
"t. c #AB9247",
"y. c #AA954E",
"u. c #B89947",
"i. c #BCA85A",
"p. c #898467",
"a. c #948C68",
"s. c #9D9A66",
"d. c #83837C",
"f. c #8B8979",
"g. c #8C8B7A",
"h. c #918E75",
"j. c #999778",
"k. c #AC9E68",
"l. c #B1A46C",
"z. c #B7AA7A",
"x. c #CEA943",
"c. c #C9A848",
"v. c #D3AD46",
"b. c #DAB548",
"n. c #DEB94C",
"m. c #CAAC56",
"M. c #D0AF51",
"N. c #CCB15F",
"B. c #DDBB55",
"V. c #D4B45A",
"C. c #DAB959",
"Z. c #E4BC46",
"A. c #E1BD53",
"S. c #C7B263",
"D. c #D8BA67",
"F. c #C9B878",
"G. c #E0BD61",
"H. c #ECC545",
"J. c #EAC54C",
"K. c #F4CD44",
"L. c #F4CD4B",
"P. c #F8D145",
"I. c #FAD44B",
"U. c #EAC757",
"Y. c #F2CD55",
"T. c #F9D554",
"R. c #FCD854",
"E. c #F6D259",
"W. c #FDDB5C",
"Q. c #DCC269",
"!. c #DBC374",
"~. c #D9C47A",
"^. c #ECCB63",
"/. c #E5C768",
"(. c #EBCD6B",
"). c #F0CF6B",
"_. c #F4D262",
"`. c #F9D761",
"'. c #FDDD64",
"]. c #F4D46B",
"[. c #FDDE6B",
"{. c #E9CC76",
"}. c #EBD174",
"|. c #EDD27C",
" X c #FBDD72",
".X c #F2D57A",
"XX c #F6D978",
"oX c #FFE16E",
"OX c #FEE174",
"+X c #FEE27C",
"@X c #898985",
"#X c #8F908C",
"$X c #939289",
"%X c #9A9A98",
"&X c #A19F91",
"*X c #9FA095",
"=X c #A8A485",
"-X c #B7AB81",
";X c #A8A79D",
":X c #B4B397",
">X c #A4A4A3",
",X c #ABABAA",
"<X c #B5B4A9",
"1X c #B8B8B7",
"2X c #CBBD85",
"3X c #C8BD96",
"4X c #CEC08F",
"5X c #DAC985",
"6X c #D5C899",
"7X c #E7CD83",
"8X c #EDD483",
"9X c #EAD58D",
"0X c #F4DA84",
"qX c #F4DB8A",
"wX c #EBD796",
"eX c #ECD994",
"rX c #F4DC94",
"tX c #F3DD9B",
"yX c #FEE484",
"uX c #FEE58C",
"iX c #FCE58E",
"pX c #FDE692",
"aX c #FEE895",
"sX c #F7E29B",
"dX c #F9E49C",
"fX c #FEE99C",
"gX c #C8C6A8",
"hX c #CFCBB2",
"jX c #D8D5BC",
"kX c #EDDEA6",
"lX c #EBE0AF",
"zX c #F7E4A7",
"xX c #FAE6A5",
"cX c #FEEBA4",
"vX c #FEECAB",
"bX c #F8E7B1",
"nX c #FDEDB3",
"mX c #FDEEBA",
"MX c #FFF0B6",
"NX c #FEF1BE",
"BX c #C9C9C7",
"VX c #D6D6C9",
"CX c #D9D8D4",
"ZX c #E0DAC6",
"AX c #E4E2CB",
"SX c #FDEFC0",
"DX c #FEF1C2",
"FX c #E4E3D9",
"GX c #E7E8E4",
"HX c #F5F5E7",
"JX c #F3F3ED",
"KX c #F5F5F1",
"LX c #FBFBF4",
"PX c #FEFEFB",
"IX c None",
/* pixels */
"IXIXIXIXIXIXIXIXIXIXIXIXIXIXIXIXIXIXIXIXIXIXIXIXIXIXIXIXIXIXIXIXIXIXIXIXIXIXIXIXIXIXIXIXIXIXIXIXIXIXIXIXIXIXIXIXIXIXIXIXIXIXIXIX",
"IXIXIXIXIXIXIXIXIXIXIXIXIXIXIXIXIXIXIXIXIXIXIXIXIXIXIXIXIXIXIXM * IXIXIXIXIXIXIXIXIXIXIXIXIXIXIXIXIXIXIXIXIXIXIXIXIXIXIXIXIXIXIX",
"IXIXIXIXIXIXIXIXIXIXIXIXIXIXIXIXIXIXIXIXIXIXIXIXIXIXIXIXIX>XCXGXA * * IXIXIXIXIXIXIXIXIXIXIXIXIXIXIXIXIXIXIXIXIXIXIXIXIXIXIXIXIX",
"IXIXIXIXIXIXIXIXIXIXIXIXIXIXIXIXIXIXIXIXIXIXIXIXIXIXIXIXBXGXPXPXCXg % * ; IXIXIXIXIXIXIXIXIXIXIXIXIXIXIXIXIXIXIXIXIXIXIXIXIXIXIX",
"IXIXIXIXIXIXIXIXIXIXIXIXIXIXIXIXIXIXIXIXIXIXIXIXIXIX1XGXLXPXCX>XQ M a : * * IXIXIXIXIXIXIXIXIXIXIXIXIXIXIXIXIXIXIXIXIXIXIXIXIXIX",
"IXIXIXIXIXIXIXIXIXIXIXIXIXIXIXIXIXIXIXIXIXIXIXIX,XCXLXPXFX;XW Y Y U t f i : * ; IXIXIXIXIXIXIXIXIXIXIXIXIXIXIXIXIXIXIXIXIXIXIXIX",
"IXIXIXIXIXIXIXIXIXIXIXIXIXIXIXIXIXIXIXIXIXIX>XBXKXPXGX<Xp.Y @.u.u.&.| P t h a : * ; IXIXIXIXIXIXIXIXIXIXIXIXIXIXIXIXIXIXIXIXIXIX",
"IXIXIXIXIXIXIXIXIXIXIXIXIXIXIXIXIXIXIXIXIX1XGXPXKXhXa.R t.m.F.!.!.V.c.%.} K z j p ; ; IXIXIXIXIXIXIXIXIXIXIXIXIXIXIXIXIXIXIXIXIX",
"IXIXIXIXIXIXIXIXIXIXIXIXIXIXIXIXIXIXIX1XFXPXLXVXj.E [ u.D.7XwXkXtX9X{.V.x.%.| K z k 6 * : IXIXIXIXIXIXIXIXIXIXIXIXIXIXIXIXIXIXIX",
"IXIXIXIXIXIXIXIXIXIXIXIXIXIXIXIXIX,XCXKXLXFX=XR T u.N.!.9XkXbXmXmXzXtX8X/.M.5.X.I t b h : * > IXIXIXIXIXIXIXIXIXIXIXIXIXIXIXIXIX",
"IXIXIXIXIXIXIXIXIXIXIXIXIXIXIX>XBXJXLXGX:XW I #.c.D.|.rXzXbXDXDXSXSXzXdXqX).A.x.,.} L u b a ; * IXIXIXIXIXIXIXIXIXIXIXIXIXIXIXIX",
"IXIXIXIXIXIXIXIXIXIXIXIXIXIXBXGXPXHXgXr.U | u.C.{.9XsXxXnXbXa.m m W 6XvXdXqX.X^.n.5.+.J K x v i ; ; IXIXIXIXIXIXIXIXIXIXIXIXIXIX",
"IXIXIXIXIXIXIXIXIXIXIXIX1XGXLXLXjXa.U ' *.M./..X0XdXxXvXnXkX=     . -XnXcXfXiXXX).A.7.3...H U z v : * ; IXIXIXIXIXIXIXIXIXIXIXIX",
"IXIXIXIXIXIXIXIXIXIX,XFXLXLXZXj.y L $.4.B.^..XqXpXdXxXcXvXkX*     . z.vXcXxXdXiX0X].A.Z.6.,./ F y b f - & ; IXIXIXIXIXIXIXIXIXIX",
"IXIXIXIXIXIXIXIX>XCXHXLXFXz.y L  .4.n.B.t 3 4 7 7 9 9 9 9 8 X       < f 7 9 7 7 4 4 w._.J.7.1.O.^ L y n s ; * IXIXIXIXIXIXIXIXIX",
"IXIXIXIXIXIX,XBXJXPXHX:Xc K { <.7.J._./.#                                           0  X_.Y.Z.8.>._ I r c m p & * IXIXIXIXIXIXIX",
"IXIXIXIXIXM GXPXHXjXr.1 ~ o.6.Z.Y._.oX}.@                                           w +X X`.E.H.9.2.=.( G K m B ; * : IXIXIXIXIX",
"IXIXIXIXIX, CXKX=Xy D ( 3.9.H.Y.W.'.oX}.@                                           w +X X[.'.T.K.0.8.-._ J S x a * > IXIXIXIXIX",
"IXIXIXIXIX; %XgXy H _ 2.0.K.T.R.'.oX+X}.$                                           w +X+X X'.W.R.P.H.8.;.-.J 1 2 > : IXIXIXIXIX",
"IXIXIXIXIX; V j.1 ( 2.0.P.R.W.oXoXoXOX}.$                                           w +X+XoXoX'.W.T.I.q.8.-.=.G w p , IXIXIXIXIX",
"IXIXIXIXIX* B s.D >.8.q.I.R.W.[.oXOX+X}.$                 o + O + o O O + o + o O o u +X+XoX[.'.W.W.I.P.q.8.-.^ t s p IXIXIXIXIX",
"IXIXIXIXIX* B s.G >.9.P.R.W.W.[.oXOX+XXXc .               < i.Q.Q.!.!.~.~.~.~.~.~.!.{.yX+XOX X[.'.W.R.I.q.8.-.^ x s a IXIXIXIXIX",
"IXIXIXIXIX& p.s.~ >.0.I.W.W.'.'.oXOX+XyX0Xw.o               < V.+XyXyXiXaXpXpXaXuXuXiXyX+X+XOX[.'.W.W.I.q.8.;.^ c s d IXIXIXIXIX",
"IXIXIXIXIX& V s.~ 1.H.R.W.'.oXoXOX+X+XyXiXiXk.@               @ i.+XyXuXuXuXaXpXuXiXuXyXyX+XOX[.oX'.W.R.P.8.+.H R f d IXIXIXIXIX",
"IXIXIXIXIX& V s.H 1.H.E.'.oX[.OX+X+XyXiXuXaXaXF.=               o w.yXiXpXaXaXaXpXpXpXiXyXyX+XoX[.[.'.W.L.9.,.F c v d IXIXIXIXIX",
"IXIXIXIXIX% Z s.` 3.H.`.'.oXOXOX+X+XiXiXaXfXfXcX5X9 .             . c qXaXfXfXfXfXfXaXiXuX+X+XOX X X'.W.L.b.%.F c ! d IXIXIXIXIX",
"IXIXIXIXIX% Z s.` 3.J.`.oXOXOX+X+XyXyXiXaXfXcXvXvXeXx .             . q 9XcXvXvXcXcXaXpXuXyX+X+XOXOX X'.Y.Z.$.S m f.a IXIXIXIXIX",
"IXIXIXIXIX% Z s.' 3.U.`.OX+X+X+XyXyXiXpXpXfXcXvXMXMXbXa.o               - 4XMXvXcXfXaXuXuXyXyX+X+X+X X'.Y.Z.$.D e.g.a IXIXIXIXIX",
"IXIXIXIXIX% ! s.' 4.U.].OX+XyXyXyXyXuXpXpXfXfXcXvXNXSXmXz.@               & z.vXfXfXpXiXuXuXyXyX+X+X+X[.E.n.$.L e.@Xd IXIXIXIXIX",
"IXIXIXIXIX% Z j.' 6.U. X+XyXyXyXuXuXuXpXpXaXfXfXcXnXNXDXDXz.X               7 sXfXaXpXpXuXiXyXyXyXyX+X X_.n.$.D W d.a IXIXIXIXIX",
"IXIXIXIXIX% Z j.' 5.^.XXyXiXyXiXuXuXuXuXuXaXaXfXfXcXvXMXlXf               @ F.dXaXpXpXpXiXuXuXuXyXuXyX X_.A.$.L e.! a IXIXIXIXIX",
"IXIXIXIXIX& ! j.] 4.^.+XyXiXiXiXuXuXpXpXpXpXuXpXpXpXaX9X8               $ F.aXpXpXpXiXiXiXiXiXpXuXuXiX+X].B.$.L e.! d IXIXIXIXIX",
"IXIXIXIXIX% d.j.T x.^.0XiXaXpXpXaXiXiXiXiXuXuXiXiXyX{.5               # S.yXyXiXuXpXuXpXpXpXiXaXaXpXuX+X].B.$.F W Q a IXIXIXIXIX",
"IXIXIXIXIX% f.$X| x.(.yXpXaXaXaXaXaXaXiXiXuXyXyX+X(.4               # c.oXOX+XyXyXpXuXpXpXpXaXaXaXaXaXuXXXB.&.I p.Q g IXIXIXIXIX",
"IXIXIXIXIX% A h.' v.}.qXaXfXfXaXaXaXaXiXuXyXyX+X(.3               @ m.R.W.'.oXOX+XyXuXuXiXaXaXaXfXfXaXuXXXB.&.L p.Q a IXIXIXIXIX",
"IXIXIXIXIX% @Xj.T m.}.qXfXcXcXfXfXaXaXiXuXyX+X(.3               $ F.+XoX'.'.'.OX+XyXuXaXiXaXfXfXfXfXdXiX.XG.&.P p.A a IXIXIXIXIX",
"IXIXIXIXIX% @Xj.' M.{.rXxXcXcXfXfXfXiXiXuXyX/.3               & 3XfXuX+XOXoXoXoXOX+XuXuXaXaXfXcXcXcXcXdX|.D.#.P p.A a IXIXIXIXIX",
"IXIXIXIXIX% @Xh.[ M..XdXcXvXvXcXcXfXfXiXiX{.3               & 3XMXfXiXuX+X+XOX+X+XyXyXuXaXfXfXcXcXvXcXdX|.D.t.P p.A a IXIXIXIXIX",
"IXIXIXIXIX% $Xh.T M.7XsXvXnXvXvXcXfXaXiX{.4               $ 2XNXMXfXaXiXuXyXyXyXyXyXuXiXaXfXcXcXvXMXvXdX0XD.$.I f.A a IXIXIXIXIX",
"IXIXIXIXIX% #Xg.[ V.9XxXvXmXnXvXcXcXaXiXw               O z.kXlXkXeXqX9X0X.X8X.X|.8X0XpXfXfXcXvXvXMXMXxXqXD.u.I h.A a IXIXIXIXIX",
"IXIXIXIXIX% #Xg.[ D.9XzXbXSXmXvXvXcXfXqX$               o - - - - - = = = = = = = = 2 5XfXcXcXvXnXmXmXxXrXG.&.T h.A a IXIXIXIXIX",
"IXIXIXIXIX% %Xg.[ N.wXbXSXSXmXnXvXcXcXeX$                                           o F.cXcXvXMXmXSXmXbXtX!.u.T g.@Xa IXIXIXIXIX",
"IXIXIXIXIX% %Xf.E V.9XbXSXSXSXbXMXvXcXeX$                                           X 2XcXvXnXnXmXSXSXbXrX!.u.E &X#Xa IXIXIXIXIX",
"IXIXIXIXIX& >X@XT m.7XxXbXSXmXmXvXvXcXrX$                                           X 2XcXvXnXmXmXNXmXzXrX!.u.Y <X%Xa IXIXIXIXIX",
"IXIXIXIXIX& ,X@XK u.D.wXtXbXnXmXnXvXcXeX=                                           X 2XcXvXvXnXnXbXzXtX|.b.X.T CX%Xi IXIXIXIXIX",
"IXIXIXIXIX% A C r X.v.G.7XrXsXxXcXcXcXeX$                                           X 2XcXcXvXvXzXxXrX8XA.,.{ k.KX@Xi IXIXIXIXIX",
"IXIXIXIXIX: * , 5 G %.5.B./.7XqXsXdXdXtXm q w w 9 q q q w 5 o     . 2 w w q q q w q z 9XcXcXdXsXqX9X{.G.x.o.I 6XGXM , IXIXIXIXIX",
"IXIXIXIXIX, : : 6 5 K } ,.c.V.Q.|.qXiXpXiXiXiXiXyXyXyX+X+X.X<     . i.yXyXyXyXiXiXpXpXpXiXqX0X.X{.D.v.4...| -XCX@Xa , IXIXIXIXIX",
"IXIXIXIXIXIX; > , p 8 0 J ..%.c.V./.|.0X0XyXyXyXyXyX+X+X+X X<     . i.+X+XyXyXyXyXiXyX0XXX}.{.G.M.<.X.} l.ZXBXQ a 6 IXIXIXIXIXIX",
"IXIXIXIXIXIXIXIX: , a a e L H / ,.c.C./.XXXX+X+X+X+X+X XOXOXi.w.w.y.(.OX+X+X+XyX+XXXXX{.^./.V.5.X.J u.hXFX>XN d IXIXIXIXIXIXIXIX",
"IXIXIXIXIXIXIXIXIXIX, i a k U L G ..<.v.B.^.]. X X X X XoXoXoXoXoXOX[. X[. X X X].(.^.A.M.x.+.J [ 3XFX1XC j IXIXIXIXIXIXIXIXIXIX",
"IXIXIXIXIXIXIXIXIXIXIXIX6 p g n u L ^ o.<.v.B.U.].`.'.[.'.'.'.'.'.'.[.'.[.[._.(.^.U.n.x.<./ | z.AXBXd.j g IXIXIXIXIXIXIXIXIXIXIX",
"IXIXIXIXIXIXIXIXIXIXIXIXIX, 6 p l n u F ^ +.1.b.A.Y.E.`.W.W.W.W.W.'.W.`.`._.Y.U.Z.6.<...{ i.jXCX$XM h IXIXIXIXIXIXIXIXIXIXIXIXIX",
"IXIXIXIXIXIXIXIXIXIXIXIXIXIXIX, 6 a v c r H ..,.3.9.J.Y.T.T.R.R.R.R.E._.^.U.Z.7.3... .y.hXCX>XN j IXIXIXIXIXIXIXIXIXIXIXIXIXIXIX",
"IXIXIXIXIXIXIXIXIXIXIXIXIXIXIXIXIX6 i d N c I ^ O.,.6.9.H.K.P.P.I.E.E.J.J.7.3.:...u.6XZX<XC j IXIXIXIXIXIXIXIXIXIXIXIXIXIXIXIXIX",
"IXIXIXIXIXIXIXIXIXIXIXIXIXIXIXIXIXIX6 6 p h n c { ..=.1.6.9.0.K.L.J.0.9.2.:._ +.F.ZXBXd.j g IXIXIXIXIXIXIXIXIXIXIXIXIXIXIXIXIXIX",
"IXIXIXIXIXIXIXIXIXIXIXIXIXIXIXIXIXIXIXIX, 6 a l c P } O.>.>.1.b.b.6.1.>._ ..S.lXVX$XM g IXIXIXIXIXIXIXIXIXIXIXIXIXIXIXIXIXIXIXIX",
"IXIXIXIXIXIXIXIXIXIXIXIXIXIXIXIXIXIXIXIXIXIX6 6 a b e.' ^ / o.*.4.+.( ( c.6XVX*XN j IXIXIXIXIXIXIXIXIXIXIXIXIXIXIXIXIXIXIXIXIXIX",
"IXIXIXIXIXIXIXIXIXIXIXIXIXIXIXIXIXIXIXIXIXIXIX, , 6 f m w.' ' @.#.` #.~.lX,XB h IXIXIXIXIXIXIXIXIXIXIXIXIXIXIXIXIXIXIXIXIXIXIXIX",
"IXIXIXIXIXIXIXIXIXIXIXIXIXIXIXIXIXIXIXIXIXIXIXIXIX, 6 p B s.y.@.#.l.gX:Xd.v IXIXIXIXIXIXIXIXIXIXIXIXIXIXIXIXIXIXIXIXIXIXIXIXIXIX",
"IXIXIXIXIXIXIXIXIXIXIXIXIXIXIXIXIXIXIXIXIXIXIXIXIXIXIX, , g f.=Xa.! N h a IXIXIXIXIXIXIXIXIXIXIXIXIXIXIXIXIXIXIXIXIXIXIXIXIXIXIX",
"IXIXIXIXIXIXIXIXIXIXIXIXIXIXIXIXIXIXIXIXIXIXIXIXIXIXIXIX> , , i p p a IXIXIXIXIXIXIXIXIXIXIXIXIXIXIXIXIXIXIXIXIXIXIXIXIXIXIXIXIX",
"IXIXIXIXIXIXIXIXIXIXIXIXIXIXIXIXIXIXIXIXIXIXIXIXIXIXIXIXIXIX: , > IXIXIXIXIXIXIXIXIXIXIXIXIXIXIXIXIXIXIXIXIXIXIXIXIXIXIXIXIXIXIX",
"IXIXIXIXIXIXIXIXIXIXIXIXIXIXIXIXIXIXIXIXIXIXIXIXIXIXIXIXIXIXIXIXIXIXIXIXIXIXIXIXIXIXIXIXIXIXIXIXIXIXIXIXIXIXIXIXIXIXIXIXIXIXIXIX"
};
