/* XPM */
static char *_526157877615[] = {
/* columns rows colors chars-per-pixel */
"16 16 139 2 ",
"   c black",
".  c #000001",
"X  c #020201",
"o  c #040301",
"O  c #0A0801",
"+  c #0B0A01",
"@  c #140B01",
"#  c #110F00",
"$  c #121000",
"%  c #151101",
"&  c #271803",
"*  c #302803",
"=  c #352D12",
"-  c #393015",
";  c #393018",
":  c #3B321C",
">  c #413503",
",  c #473905",
"<  c #4F410D",
"1  c #4F420D",
"2  c #4E4A0A",
"3  c #514104",
"4  c #564205",
"5  c #514310",
"6  c #544613",
"7  c #534616",
"8  c #514D11",
"9  c #524D11",
"0  c #534E15",
"q  c #554818",
"w  c #564A18",
"e  c #594C1C",
"r  c #624C05",
"t  c #675206",
"y  c #715906",
"u  c #745F0E",
"i  c #715E13",
"p  c #75600F",
"a  c #746010",
"s  c #5F5425",
"d  c #5E5529",
"f  c #504F3D",
"g  c #59543B",
"h  c #5D583F",
"j  c #605524",
"k  c #605628",
"l  c #525243",
"z  c #505044",
"x  c #515145",
"c  c #585542",
"v  c #5E5A42",
"b  c #866807",
"n  c #9B7400",
"m  c #9D7600",
"M  c #9B7908",
"N  c #9B7A09",
"B  c #9E7E0A",
"V  c #A27900",
"C  c #A18109",
"Z  c #A68309",
"A  c #AC880A",
"S  c #B18C0B",
"D  c #B7920B",
"F  c #BE990C",
"G  c #C69200",
"H  c #C89300",
"J  c #CEAC0D",
"K  c #D1A70D",
"L  c #E5AE00",
"P  c #E7B200",
"I  c #E8B100",
"U  c #E9B500",
"Y  c #EBB400",
"T  c #EDB800",
"R  c #EFBA00",
"E  c #EDBE0D",
"W  c #E1C50E",
"Q  c #FBC900",
"!  c #FCCA00",
"~  c #FCCB00",
"^  c #FDCC00",
"/  c #FFC20F",
"(  c #FFC30F",
")  c #FFC50F",
"_  c #FFC70F",
"`  c #FFC90F",
"'  c #FFCA0F",
"]  c #FFCD0F",
"[  c #FFD607",
"{  c #FFD708",
"}  c #FFD808",
"|  c #FFDB0B",
" . c #FFDC0C",
".. c #FFDD0D",
"X. c #FFDE0D",
"o. c #FFC610",
"O. c #FFC710",
"+. c #FFC810",
"@. c #FFCA10",
"#. c #FFD110",
"$. c #FFD610",
"%. c #FFD912",
"&. c #FFDC10",
"*. c #FFDD10",
"=. c #FFDD12",
"-. c #FFE501",
";. c #FFE402",
":. c #FFE502",
">. c #FFE602",
",. c #FFE708",
"<. c #FAE10F",
"1. c #FFE70D",
"2. c #FFE909",
"3. c #FFE90B",
"4. c #FFEA0A",
"5. c #FFEB0A",
"6. c #FFEC09",
"7. c #FFED09",
"8. c #FFE80D",
"9. c #FFE90D",
"0. c #FFEC0D",
"q. c #FFEF0E",
"w. c #FFE111",
"e. c #FDE310",
"r. c #FFE210",
"t. c #FFE311",
"y. c #FFE313",
"u. c #FFE411",
"i. c #FFE611",
"p. c #FFE513",
"a. c #FFE911",
"s. c #FFEE11",
"d. c #FFF213",
"f. c #FFF513",
"g. c #FFF613",
"h. c #FFF014",
"j. c #FFFB13",
"k. c #FFFF13",
"l. c None",
/* pixels */
"l.l.l.l.l.l.l.g h l.l.l.l.l.l.l.",
"l.l.l.l.l.l.p U Y u l.l.l.l.l.l.",
"l.l.l.l.s H ;.f.g.;.G j l.l.l.l.",
"l.l.l m ~ 0.p.C B w.0.^ V f l.l.",
"l.; U 2.p.r # % . . M s.2.T - l.",
"l.8 2.@.p.3 . * t . A p.@.0.8 l.",
"l.w { @.| E + . W k.] ( ' | 6 l.",
"l.e [ ' E a.w.@ . F w._ '  .5 l.",
"l.q { @._ s.J . . K %.o.@. .1 l.",
"l.7 | @.=.D . & <.k.{ _ o. .1 l.",
"l.0 ,.@. .> . , y % Z w._ d.2 l.",
"l.: P 7.y.4 o O . . b d.2.T = l.",
"l.l.x n Q 0.$.M S =.1.~ m x l.l.",
"l.l.l.l.d G ;.j.g.;.G k l.l.l.l.",
"l.l.l.l.l.l.i L I a l.l.l.l.l.l.",
"l.l.l.l.l.l.l.c v l.l.l.l.l.l.l."
};
